<svg xmlns="http://www.w3.org/2000/svg" viewBox="0 0 50 50" width="50" height="50"><g stroke-width="2" fill="none" stroke-linecap="butt"/><path d="M 48.99 13.59A 1.39 1.39 0 0 1 47.6 14.98L 2.5 14.98A 1.39 1.39 0 0 1 1.11 13.59L 1.11 12.41A 1.39 1.39 0 0 1 2.5 11.02L 47.6 11.02A 1.39 1.39 0 0 1 48.99 12.41L 48.99 13.59Z" fill="#FFFFFF"/><path d="M 49.01 25.54A 1.42 1.42 0 0 1 47.59 26.96L 2.53 27.04A 1.42 1.42 0 0 1 1.11 25.62L 1.11 24.48A 1.42 1.42 0 0 1 2.53 23.06L 47.59 22.98A 1.42 1.42 0 0 1 49.01 24.4L 49.01 25.54Z" fill="#FFFFFF"/><path d="M 48.99 37.62A 1.38 1.38 0 0 1 47.61 39L 2.45 39A 1.38 1.38 0 0 1 1.07 37.62L 1.07 36.38A 1.38 1.38 0 0 1 2.45 35L 47.61 35A 1.38 1.38 0 0 1 48.99 36.38L 48.99 37.62Z" fill="#FFFFFF"/></svg>