<?xml version="1.0" encoding="UTF-8"?>
<!DOCTYPE svg PUBLIC "-//W3C//DTD SVG 1.1//EN" "http://www.w3.org/Graphics/SVG/1.1/DTD/svg11.dtd">
<svg xmlns="http://www.w3.org/2000/svg" version="1.1" width="638px" height="808px" style="shape-rendering:geometricPrecision; text-rendering:geometricPrecision; image-rendering:optimizeQuality; fill-rule:evenodd; clip-rule:evenodd" xmlns:xlink="http://www.w3.org/1999/xlink">
<g><path style="opacity:0.992" fill="#000000" d="M 352.5,75.5 C 374.663,72.4899 393.83,78.4899 410,93.5C 413.268,98.0356 415.435,103.036 416.5,108.5C 439.59,108.354 452.256,119.688 454.5,142.5C 453.934,157.402 446.267,166.068 431.5,168.5C 433.974,194.199 433.808,219.866 431,245.5C 427.727,259.261 423.227,272.595 417.5,285.5C 422.201,291.565 425.867,298.232 428.5,305.5C 441.672,302.25 452.838,305.583 462,315.5C 471.046,327.259 477.713,340.259 482,354.5C 489.122,344.081 497.289,334.581 506.5,326C 510.12,324.942 513.787,324.442 517.5,324.5C 511.564,313.543 514.564,306.377 526.5,303C 537.388,301.685 547.055,304.518 555.5,311.5C 570.725,305.787 585.725,306.287 600.5,313C 609.705,320.278 613.205,329.778 611,341.5C 608.453,348.033 603.62,351.533 596.5,352C 585.157,352.926 573.824,353.926 562.5,355C 556.495,355.988 555.995,358.155 561,361.5C 561.667,363.833 561.667,366.167 561,368.5C 548.543,395.264 532.71,419.764 513.5,442C 502.028,452.045 488.695,456.045 473.5,454C 457.207,446.277 442.374,436.444 429,424.5C 426.108,425.842 424.775,428.175 425,431.5C 420.376,458.487 420.543,485.487 425.5,512.5C 425.213,517.242 423.213,521.075 419.5,524C 438.013,565.194 455.846,606.694 473,648.5C 480.975,663.932 487.475,679.932 492.5,696.5C 498.728,697.057 504.728,698.557 510.5,701C 517.798,706.241 524.632,712.074 531,718.5C 544.942,738.271 543.442,756.771 526.5,774C 520.07,778.699 512.903,781.199 505,781.5C 472.501,780.7 440.334,779.867 408.5,779C 398.769,778.234 389.436,775.901 380.5,772C 375.748,768.586 372.581,764.086 371,758.5C 370.333,747.167 370.333,735.833 371,724.5C 372.422,714.81 374.756,705.477 378,696.5C 375.586,688.925 372.586,681.592 369,674.5C 358.085,658.337 347.418,642.004 337,625.5C 334.94,620.38 332.607,615.38 330,610.5C 327.774,616.629 326.441,622.962 326,629.5C 325.212,645.896 325.879,662.229 328,678.5C 331.388,694.329 335.388,709.995 340,725.5C 340.667,735.833 340.667,746.167 340,756.5C 338.872,767.958 332.705,774.458 321.5,776C 282.394,779.989 243.394,779.323 204.5,774C 191.832,771.66 185.166,763.993 184.5,751C 190.051,722.423 206.051,701.923 232.5,689.5C 232.833,688.833 233.167,688.167 233.5,687.5C 229.864,675.29 226.697,662.957 224,650.5C 223.291,626.677 224.957,603.01 229,579.5C 233.032,559.175 236.865,538.842 240.5,518.5C 238.032,515.528 236.198,512.194 235,508.5C 233.407,492.633 234.74,476.966 239,461.5C 242.67,447.824 246.337,434.157 250,420.5C 250.626,412.821 250.96,405.154 251,397.5C 250,395.5 249,393.5 248,391.5C 245.252,393.458 242.418,395.291 239.5,397C 224.192,411.975 209.192,427.308 194.5,443C 188.521,447.33 181.854,448.997 174.5,448C 161.244,445.122 149.744,438.955 140,429.5C 130.5,417.846 122.5,405.18 116,391.5C 111.044,380.623 105.711,369.956 100,359.5C 99.718,353.383 101.718,348.049 106,343.5C 106.324,339.454 104.491,336.621 100.5,335C 93.9032,331.791 87.0699,330.957 80,332.5C 75.7776,332.441 71.6109,331.941 67.5,331C 49.7276,323.86 45.2276,311.694 54,294.5C 64.1035,281.958 77.2701,276.958 93.5,279.5C 101.712,279.038 109.712,280.038 117.5,282.5C 132.09,272.865 146.257,273.198 160,283.5C 162.147,288.327 161.814,292.994 159,297.5C 156.167,301.667 152.667,305.167 148.5,308C 151.956,308.18 155.289,308.847 158.5,310C 165.333,319.5 172.167,329 179,338.5C 184.41,326.668 191.077,315.668 199,305.5C 213.208,290.387 230.541,284.054 251,286.5C 252.882,276.288 259.048,270.455 269.5,269C 263.791,245.868 261.958,222.368 264,198.5C 264.735,181.817 265.735,165.15 267,148.5C 270.944,115.231 288.778,93.3973 320.5,83C 331.075,79.5209 341.742,77.0209 352.5,75.5 Z"/></g>
<g><path style="opacity:1" fill="#323232" d="M 352.5,88.5 C 362.448,88.9471 368.115,94.1138 369.5,104C 368.666,106.848 367,109.182 364.5,111C 345.833,118.333 327.167,125.667 308.5,133C 300.066,134.709 291.732,134.209 283.5,131.5C 283.5,130.5 283.5,129.5 283.5,128.5C 288.423,116.073 296.757,106.573 308.5,100C 322.163,92.1652 336.829,88.3319 352.5,88.5 Z"/></g>
<g><path style="opacity:1" fill="#252525" d="M 352.5,88.5 C 366.879,87.8427 379.879,91.676 391.5,100C 394.4,102.397 396.733,105.23 398.5,108.5C 371.117,114.239 344.783,123.072 319.5,135C 305.983,138.87 292.316,142.036 278.5,144.5C 279.39,138.834 281.057,133.5 283.5,128.5C 283.5,129.5 283.5,130.5 283.5,131.5C 291.732,134.209 300.066,134.709 308.5,133C 327.167,125.667 345.833,118.333 364.5,111C 367,109.182 368.666,106.848 369.5,104C 368.115,94.1138 362.448,88.9471 352.5,88.5 Z"/></g>
<g><path style="opacity:1" fill="#313131" d="M 419.5,123.5 C 422.188,125.266 425.021,126.933 428,128.5C 430.739,131.722 432.072,135.389 432,139.5C 431.208,137.413 430.041,135.579 428.5,134C 421.243,131.322 413.743,129.822 406,129.5C 390.452,130.876 375.285,134.043 360.5,139C 359.058,139.377 358.058,140.21 357.5,141.5C 353.486,141.666 349.486,141.499 345.5,141C 368.696,128.729 393.363,122.896 419.5,123.5 Z"/></g>
<g><path style="opacity:1" fill="#252525" d="M 419.5,123.5 C 430.119,122.934 436.619,127.934 439,138.5C 440.686,142.894 440.686,147.227 439,151.5C 435.047,154.9 430.547,156.733 425.5,157C 418.662,152.919 411.329,149.919 403.5,148C 388.38,144.292 373.046,142.126 357.5,141.5C 358.058,140.21 359.058,139.377 360.5,139C 375.285,134.043 390.452,130.876 406,129.5C 413.743,129.822 421.243,131.322 428.5,134C 430.041,135.579 431.208,137.413 432,139.5C 432.072,135.389 430.739,131.722 428,128.5C 425.021,126.933 422.188,125.266 419.5,123.5 Z"/></g>
<g><path style="opacity:1" fill="#aaaaaa" d="M 291.5,289.5 C 301.248,292.471 311.248,294.304 321.5,295C 342.856,295.846 364.189,295.512 385.5,294C 392.271,287.631 397.438,280.131 401,271.5C 411.015,238.873 414.349,205.54 411,171.5C 371.88,158.552 332.046,156.052 291.5,164C 286.361,165.545 281.361,167.379 276.5,169.5C 276.913,167.11 277.579,164.777 278.5,162.5C 287.715,160.373 296.715,157.54 305.5,154C 339.895,149.358 373.895,151.358 407.5,160C 410.05,161.442 412.716,162.608 415.5,163.5C 416.65,166.747 417.483,170.08 418,173.5C 419.853,203.517 417.52,233.184 411,262.5C 408.229,276.187 401.729,287.687 391.5,297C 389.725,298.439 387.725,299.439 385.5,300C 358.059,303.775 330.725,303.108 303.5,298C 298.237,296.875 294.237,294.042 291.5,289.5 Z"/></g>
<g><path style="opacity:1" fill="#cacaca" d="M 291.5,289.5 C 281.456,275.196 275.956,259.196 275,241.5C 274.074,217.408 274.574,193.408 276.5,169.5C 281.361,167.379 286.361,165.545 291.5,164C 332.046,156.052 371.88,158.552 411,171.5C 414.349,205.54 411.015,238.873 401,271.5C 397.438,280.131 392.271,287.631 385.5,294C 364.189,295.512 342.856,295.846 321.5,295C 311.248,294.304 301.248,292.471 291.5,289.5 Z"/></g>
<g><path style="opacity:1" fill="#030303" d="M 317.5,169.5 C 326.497,168.562 332.331,172.229 335,180.5C 335.87,190.885 335.536,201.218 334,211.5C 330.251,222.722 323.584,225.055 314,218.5C 312.392,215.618 311.059,212.618 310,209.5C 308.676,198.257 309.676,187.257 313,176.5C 314.012,173.798 315.512,171.465 317.5,169.5 Z"/></g>
<g><path style="opacity:1" fill="#060606" d="M 361.5,173.5 C 365.637,173.146 369.637,173.646 373.5,175C 375.127,177.754 376.627,180.588 378,183.5C 381.078,194.695 382.244,206.028 381.5,217.5C 375.521,217.075 369.688,217.741 364,219.5C 361.628,217.79 359.962,215.456 359,212.5C 357.459,201.884 357.125,191.217 358,180.5C 358.653,177.861 359.82,175.527 361.5,173.5 Z"/></g>
<g><path style="opacity:1" fill="#050505" d="M 360.5,265.5 C 367.841,265.334 375.174,265.5 382.5,266C 386.085,268.528 386.418,271.528 383.5,275C 373.485,275.445 363.485,276.112 353.5,277C 346.789,277.759 340.455,279.592 334.5,282.5C 330.011,282.167 328.511,279.833 330,275.5C 331.938,272.894 334.438,271.061 337.5,270C 345.201,267.978 352.867,266.478 360.5,265.5 Z"/></g>
<g><path style="opacity:1" fill="#032d2d" d="M 362.5,317.5 C 365.782,317.981 368.949,318.981 372,320.5C 372.481,325.034 370.314,327.534 365.5,328C 351.8,329.874 338.133,329.54 324.5,327C 307.241,324.102 290.241,320.102 273.5,315C 269.385,312.552 265.552,309.719 262,306.5C 260.991,304.975 260.491,303.308 260.5,301.5C 260.987,300.527 261.487,299.527 262,298.5C 262.333,293.5 262.667,288.5 263,283.5C 266.043,281.092 269.209,280.926 272.5,283C 278.074,289.484 283.407,296.151 288.5,303C 295.648,308.275 303.648,311.608 312.5,313C 329.068,315.65 345.734,317.15 362.5,317.5 Z"/></g>
<g><path style="opacity:1" fill="#c9c9c9" d="M 132.5,288.5 C 136.169,290.438 137.336,293.438 136,297.5C 131.333,304.167 126.667,310.833 122,317.5C 121.275,318.059 120.442,318.392 119.5,318.5C 113.892,316.514 108.226,314.681 102.5,313C 91.1334,311.906 79.8,310.573 68.5,309C 64.8739,308.722 62.8739,306.888 62.5,303.5C 63.4769,300.011 65.4769,297.177 68.5,295C 72.8332,292.416 77.4999,290.749 82.5,290C 94.9298,288.843 106.93,290.343 118.5,294.5C 121.909,292.959 125.242,291.126 128.5,289C 129.793,288.51 131.127,288.343 132.5,288.5 Z"/></g>
<g><path style="opacity:1" fill="#aaaaaa" d="M 132.5,288.5 C 135.304,287.362 138.304,287.195 141.5,288C 142.602,290.401 142.769,292.901 142,295.5C 136.047,302.41 131.38,310.077 128,318.5C 124.989,320.847 121.989,323.181 119,325.5C 110.66,321.276 101.826,318.443 92.5,317C 82.4703,316.147 72.4703,315.147 62.5,314C 59.8912,310.459 59.8912,306.959 62.5,303.5C 62.8739,306.888 64.8739,308.722 68.5,309C 79.8,310.573 91.1334,311.906 102.5,313C 108.226,314.681 113.892,316.514 119.5,318.5C 120.442,318.392 121.275,318.059 122,317.5C 126.667,310.833 131.333,304.167 136,297.5C 137.336,293.438 136.169,290.438 132.5,288.5 Z"/></g>
<g><path style="opacity:1" fill="#030d0f" d="M 375.5,411.5 C 375.611,412.117 375.944,412.617 376.5,413C 380.833,413.667 385.167,413.667 389.5,413C 393.145,409.547 395.645,405.38 397,400.5C 400.98,385.245 404.647,369.911 408,354.5C 408.9,341.452 408.567,328.452 407,315.5C 406.667,314.833 406.333,314.167 406,313.5C 403.933,316.07 401.433,318.07 398.5,319.5C 397.614,320.325 397.281,321.325 397.5,322.5C 396.818,319.515 395.818,316.515 394.5,313.5C 400.146,309.688 404.979,305.021 409,299.5C 416.916,319.974 418.583,340.974 414,362.5C 408.057,386.599 403.557,410.932 400.5,435.5C 391.641,434.619 382.975,432.786 374.5,430C 373.02,428.701 372.354,427.034 372.5,425C 372.925,420.242 373.925,415.742 375.5,411.5 Z"/></g>
<g><path style="opacity:1" fill="#030d0f" d="M 260.5,301.5 C 260.491,303.308 260.991,304.975 262,306.5C 265.552,309.719 269.385,312.552 273.5,315C 290.241,320.102 307.241,324.102 324.5,327C 338.133,329.54 351.8,329.874 365.5,328C 370.314,327.534 372.481,325.034 372,320.5C 368.949,318.981 365.782,317.981 362.5,317.5C 368.229,317.788 373.896,317.454 379.5,316.5C 381.336,317.919 383.336,319.086 385.5,320C 386.804,325.114 386.804,330.281 385.5,335.5C 383.121,337.042 380.454,337.709 377.5,337.5C 348.924,334.565 320.591,330.065 292.5,324C 280.791,321.319 269.458,317.652 258.5,313C 254.406,308.511 255.073,304.678 260.5,301.5 Z"/></g>
<g><path style="opacity:1" fill="#323232" d="M 259.5,375.5 C 257.451,375.294 257.117,374.461 258.5,373C 257.024,369.688 256.19,366.188 256,362.5C 253.847,360.556 251.347,360.056 248.5,361C 241.531,366.968 234.864,373.301 228.5,380C 217.625,387.274 207.291,395.274 197.5,404C 182.916,409.636 167.916,410.969 152.5,408C 146.093,404.801 140.426,400.634 135.5,395.5C 125.345,383.369 117.345,369.869 111.5,355C 116.932,346.076 123.266,337.909 130.5,330.5C 139.111,330.867 146.611,333.867 153,339.5C 163.523,353.882 170.19,369.882 173,387.5C 173.903,388.701 175.069,389.535 176.5,390C 180.821,390.499 185.154,390.666 189.5,390.5C 193.407,390.558 195.741,388.725 196.5,385C 193.116,374.52 189.95,364.02 187,353.5C 186.333,352.167 186.333,350.833 187,349.5C 193.545,337.628 200.879,326.295 209,315.5C 218.817,305.177 230.65,299.01 244.5,297C 239.791,303.471 239.291,310.304 243,317.5C 245.408,319.956 248.241,321.789 251.5,323C 259.43,325.802 267.43,328.302 275.5,330.5C 275.035,335.655 273.869,340.655 272,345.5C 268.922,351.991 265.588,358.325 262,364.5C 260.846,368.104 260.013,371.771 259.5,375.5 Z"/></g>
<g><path style="opacity:1" fill="#032d2d" d="M 375.5,411.5 C 381.564,393.476 387.73,375.476 394,357.5C 397.047,346.033 398.213,334.366 397.5,322.5C 397.281,321.325 397.614,320.325 398.5,319.5C 401.433,318.07 403.933,316.07 406,313.5C 406.333,314.167 406.667,314.833 407,315.5C 408.567,328.452 408.9,341.452 408,354.5C 404.647,369.911 400.98,385.245 397,400.5C 395.645,405.38 393.145,409.547 389.5,413C 385.167,413.667 380.833,413.667 376.5,413C 375.944,412.617 375.611,412.117 375.5,411.5 Z"/></g>
<g><path style="opacity:1" fill="#252525" d="M 437.5,316.5 C 438.592,337.745 436.925,358.745 432.5,379.5C 441.133,385.322 446.966,393.322 450,403.5C 463.983,416.638 479.817,419.138 497.5,411C 514.911,398.594 526.411,382.094 532,361.5C 532.499,356.177 532.666,350.844 532.5,345.5C 538.564,350.231 543.564,355.898 547.5,362.5C 538.083,376.998 528.916,391.665 520,406.5C 511.245,417.926 501.745,428.759 491.5,439C 484.167,441 476.833,441 469.5,439C 460.553,433.053 451.886,426.72 443.5,420C 442.333,418.833 441.167,417.667 440,416.5C 437.566,409.126 433.733,402.626 428.5,397C 426.196,396.105 423.862,395.271 421.5,394.5C 427.049,368.443 430.049,342.11 430.5,315.5C 432.95,315.298 435.283,315.631 437.5,316.5 Z"/></g>
<g><path style="opacity:1" fill="#a9a9a9" d="M 547.5,322.5 C 543.895,321.037 540.229,319.537 536.5,318C 534.444,317.689 532.444,317.189 530.5,316.5C 531.095,322.17 533.761,327.003 538.5,331C 542.646,334.809 547.479,337.309 553,338.5C 564.292,334.902 575.792,332.235 587.5,330.5C 582.641,323.733 575.974,320.067 567.5,319.5C 578.194,316.565 587.027,319.565 594,328.5C 595.373,330.695 595.706,333.029 595,335.5C 582.583,337.428 570.083,339.262 557.5,341C 554.534,342.266 551.534,343.433 548.5,344.5C 543.502,340.342 538.335,336.342 533,332.5C 531.698,327.9 529.864,323.567 527.5,319.5C 527.68,318.446 528.013,317.446 528.5,316.5C 534.677,314.755 540.51,315.421 546,318.5C 546.791,319.745 547.291,321.078 547.5,322.5 Z"/></g>
<g><path style="opacity:1" fill="#c9c9c9" d="M 547.5,322.5 C 548.819,323.897 550.486,324.563 552.5,324.5C 555.9,323.303 559.234,321.803 562.5,320C 564.134,319.506 565.801,319.34 567.5,319.5C 575.974,320.067 582.641,323.733 587.5,330.5C 575.792,332.235 564.292,334.902 553,338.5C 547.479,337.309 542.646,334.809 538.5,331C 533.761,327.003 531.095,322.17 530.5,316.5C 532.444,317.189 534.444,317.689 536.5,318C 540.229,319.537 543.895,321.037 547.5,322.5 Z"/></g>
<g><path style="opacity:1" fill="#323232" d="M 437.5,316.5 C 448.55,327.193 457.717,339.526 465,353.5C 467.784,360.254 469.617,367.254 470.5,374.5C 468.446,379.882 466.78,385.382 465.5,391C 466.371,395.363 469.038,397.197 473.5,396.5C 476.518,396.665 479.518,396.498 482.5,396C 483,395.5 483.5,395 484,394.5C 485.075,373.18 493.908,356.014 510.5,343C 513.893,340.924 517.56,339.758 521.5,339.5C 525.945,340.22 529.612,342.22 532.5,345.5C 532.666,350.844 532.499,356.177 532,361.5C 526.411,382.094 514.911,398.594 497.5,411C 479.817,419.138 463.983,416.638 450,403.5C 446.966,393.322 441.133,385.322 432.5,379.5C 436.925,358.745 438.592,337.745 437.5,316.5 Z"/></g>
<g><path style="opacity:1" fill="#252525" d="M 189.5,390.5 C 185.154,390.666 180.821,390.499 176.5,390C 175.069,389.535 173.903,388.701 173,387.5C 170.19,369.882 163.523,353.882 153,339.5C 146.611,333.867 139.111,330.867 130.5,330.5C 136.768,325.02 144.101,322.187 152.5,322C 166.421,342.006 177.587,363.506 186,386.5C 186.69,388.35 187.856,389.684 189.5,390.5 Z"/></g>
<g><path style="opacity:1" fill="#252525" d="M 331.5,351.5 C 329.883,350.962 328.216,350.629 326.5,350.5C 325.124,366.592 320.291,381.592 312,395.5C 311.625,400.21 310.958,404.877 310,409.5C 309.167,410.333 308.333,411.167 307.5,412C 292.703,411.068 278.87,406.901 266,399.5C 264.991,397.975 264.491,396.308 264.5,394.5C 276.774,399.428 289.441,402.595 302.5,404C 303.333,403.167 304.167,402.333 305,401.5C 307.996,389.514 311.996,377.847 317,366.5C 318.779,359.278 319.946,351.945 320.5,344.5C 328.994,339.92 332.66,342.253 331.5,351.5 Z"/></g>
<g><path style="opacity:1" fill="#032d2d" d="M 282.5,346.5 C 286.779,347.871 290.946,349.538 295,351.5C 295.017,362.098 292.517,372.098 287.5,381.5C 286.833,381.833 286.167,382.167 285.5,382.5C 280.53,381.771 275.53,381.271 270.5,381C 269.578,377.541 269.745,374.041 271,370.5C 275.647,362.874 279.48,354.874 282.5,346.5 Z"/></g>
<g><path style="opacity:1" fill="#252525" d="M 375.5,378.5 C 366.711,367.29 355.711,359.29 342.5,354.5C 342.5,351.833 342.5,349.167 342.5,346.5C 356.408,349.906 369.408,355.239 381.5,362.5C 380.02,368.109 378.02,373.443 375.5,378.5 Z"/></g>
<g><path style="opacity:1" fill="#252525" d="M 521.5,339.5 C 517.56,339.758 513.893,340.924 510.5,343C 493.908,356.014 485.075,373.18 484,394.5C 483.5,395 483,395.5 482.5,396C 479.518,396.498 476.518,396.665 473.5,396.5C 476.724,386.967 480.557,377.633 485,368.5C 492.407,357.755 500.574,347.589 509.5,338C 513.781,337.202 517.781,337.702 521.5,339.5 Z"/></g>
<g><path style="opacity:1" fill="#323232" d="M 331.5,351.5 C 331.142,358.553 330.309,365.553 329,372.5C 322.034,401.03 315.701,429.697 310,458.5C 309.333,465.5 309.333,472.5 310,479.5C 311.234,486.167 312.4,492.834 313.5,499.5C 292.468,500.319 272.135,496.485 252.5,488C 248.81,485.831 247.143,482.664 247.5,478.5C 248.857,471.881 250.023,465.214 251,458.5C 254.742,445.941 258.075,433.275 261,420.5C 261.453,410.812 261.453,401.145 261,391.5C 262.145,392.636 263.312,393.636 264.5,394.5C 264.491,396.308 264.991,397.975 266,399.5C 278.87,406.901 292.703,411.068 307.5,412C 308.333,411.167 309.167,410.333 310,409.5C 310.958,404.877 311.625,400.21 312,395.5C 320.291,381.592 325.124,366.592 326.5,350.5C 328.216,350.629 329.883,350.962 331.5,351.5 Z"/></g>
<g><path style="opacity:1" fill="#323232" d="M 342.5,354.5 C 355.711,359.29 366.711,367.29 375.5,378.5C 368.857,394.903 363.523,411.736 359.5,429C 359.726,432.012 360.559,434.845 362,437.5C 364.479,439.314 366.979,440.981 369.5,442.5C 369.335,445.518 369.502,448.518 370,451.5C 373.942,454.452 378.442,456.119 383.5,456.5C 383.666,464.507 383.5,472.507 383,480.5C 380.037,494.123 371.537,501.289 357.5,502C 347.162,502.484 336.828,502.984 326.5,503.5C 322.538,489.805 320.705,475.805 321,461.5C 322.667,451.503 324.333,441.503 326,431.5C 332.333,406 337.833,380.333 342.5,354.5 Z"/></g>
<g><path style="opacity:1" fill="#252525" d="M 259.5,375.5 C 259.665,378.85 259.498,382.183 259,385.5C 252.143,375.333 243.643,373.833 233.5,381C 220.779,391.054 209.446,402.388 199.5,415C 188.769,423.022 176.769,427.022 163.5,427C 160.062,426.08 157.062,424.413 154.5,422C 146.799,414.078 140.465,405.244 135.5,395.5C 140.426,400.634 146.093,404.801 152.5,408C 167.916,410.969 182.916,409.636 197.5,404C 207.291,395.274 217.625,387.274 228.5,380C 234.864,373.301 241.531,366.968 248.5,361C 251.347,360.056 253.847,360.556 256,362.5C 256.19,366.188 257.024,369.688 258.5,373C 257.117,374.461 257.451,375.294 259.5,375.5 Z"/></g>
<g><path style="opacity:1" fill="#252525" d="M 369.5,442.5 C 377.25,443.904 384.916,445.737 392.5,448C 395.62,448.585 398.287,449.919 400.5,452C 399.369,462.132 399.203,472.299 400,482.5C 401.353,490.586 402.687,498.586 404,506.5C 396.286,510.179 388.12,512.346 379.5,513C 362.849,514.055 346.182,514.555 329.5,514.5C 328.8,510.763 327.8,507.096 326.5,503.5C 336.828,502.984 347.162,502.484 357.5,502C 371.537,501.289 380.037,494.123 383,480.5C 383.5,472.507 383.666,464.507 383.5,456.5C 378.442,456.119 373.942,454.452 370,451.5C 369.502,448.518 369.335,445.518 369.5,442.5 Z"/></g>
<g><path style="opacity:1" fill="#252525" d="M 247.5,478.5 C 247.143,482.664 248.81,485.831 252.5,488C 272.135,496.485 292.468,500.319 313.5,499.5C 315.093,504.055 316.76,508.722 318.5,513.5C 294.43,515.338 270.764,512.838 247.5,506C 246.211,502.598 245.544,498.931 245.5,495C 245.358,489.257 246.025,483.757 247.5,478.5 Z"/></g>
<g><path style="opacity:1" fill="#0e1314" d="M 386.5,528.5 C 389.05,528.561 390.55,529.894 391,532.5C 412.099,575.363 430.433,619.363 446,664.5C 447.089,669.021 448.255,673.521 449.5,678C 448.134,683.695 444.467,686.528 438.5,686.5C 426.823,685.333 415.157,684.167 403.5,683C 389.1,662.597 373.933,642.764 358,623.5C 350.039,611.9 342.872,599.9 336.5,587.5C 335.833,582.833 333.167,580.167 328.5,579.5C 313.71,577.015 299.71,572.348 286.5,565.5C 281.336,567.162 280.336,570.162 283.5,574.5C 288.832,578.501 294.498,582.001 300.5,585C 302.317,586.8 303.484,588.966 304,591.5C 304.426,617.609 300.093,642.942 291,667.5C 289.333,670.833 287.667,674.167 286,677.5C 283.457,679.354 280.624,680.521 277.5,681C 265.991,682.129 254.657,681.296 243.5,678.5C 239.895,669.085 237.062,659.418 235,649.5C 234.292,628.111 235.626,606.778 239,585.5C 242.904,564.147 246.738,542.814 250.5,521.5C 295.547,528.433 340.881,530.766 386.5,528.5 Z"/></g>
<g><path style="opacity:1" fill="#0d0f10" d="M 336.5,587.5 C 342.872,599.9 350.039,611.9 358,623.5C 373.933,642.764 389.1,662.597 403.5,683C 415.157,684.167 426.823,685.333 438.5,686.5C 444.467,686.528 448.134,683.695 449.5,678C 448.255,673.521 447.089,669.021 446,664.5C 430.433,619.363 412.099,575.363 391,532.5C 390.55,529.894 389.05,528.561 386.5,528.5C 391.724,527.578 397.057,527.078 402.5,527C 418.946,559.062 432.78,592.228 444,626.5C 452.017,644.53 460.017,662.53 468,680.5C 469.339,685.736 469.839,691.07 469.5,696.5C 466.15,696.665 462.817,696.498 459.5,696C 441.875,690.617 423.875,688.284 405.5,689C 400.895,689.304 396.395,690.138 392,691.5C 376.909,666.695 361.242,642.029 345,617.5C 339.704,608.18 336.871,598.18 336.5,587.5 Z"/></g>
<g><path style="opacity:1" fill="#0d0f10" d="M 328.5,579.5 C 323.146,581.035 319.98,584.702 319,590.5C 315.548,601.306 312.882,612.306 311,623.5C 310.667,644.5 310.333,665.5 310,686.5C 306.839,689.557 303.005,691.057 298.5,691C 284.183,692.23 269.849,692.564 255.5,692C 248.152,690.467 244.152,685.967 243.5,678.5C 254.657,681.296 265.991,682.129 277.5,681C 280.624,680.521 283.457,679.354 286,677.5C 287.667,674.167 289.333,670.833 291,667.5C 300.093,642.942 304.426,617.609 304,591.5C 303.484,588.966 302.317,586.8 300.5,585C 294.498,582.001 288.832,578.501 283.5,574.5C 280.336,570.162 281.336,567.162 286.5,565.5C 299.71,572.348 313.71,577.015 328.5,579.5 Z"/></g>
<g><path style="opacity:1" fill="#650000" d="M 307.5,703.5 C 310.665,715.492 312.998,727.659 314.5,740C 314.167,741.833 313.833,743.667 313.5,745.5C 303.361,750.379 292.694,753.546 281.5,755C 255.58,756.801 229.913,755.135 204.5,750C 202.5,749.333 200.5,748.667 198.5,748C 197.748,747.329 197.414,746.496 197.5,745.5C 198.663,737.838 201.497,730.838 206,724.5C 210.202,720.633 214.035,716.467 217.5,712C 223.55,706.225 230.717,702.725 239,701.5C 250.768,704.795 262.768,706.461 275,706.5C 285.908,706.209 296.741,705.209 307.5,703.5 Z"/></g>
<g><path style="opacity:1" fill="#650000" d="M 482.5,710.5 C 487.232,712.702 491.899,715.202 496.5,718C 503.4,725.457 505.9,734.29 504,744.5C 500.92,748.631 496.753,751.131 491.5,752C 463.821,752.729 436.154,752.395 408.5,751C 399.063,749.988 389.729,748.488 380.5,746.5C 379.491,732.219 381.824,718.552 387.5,705.5C 398.851,701.692 410.518,700.525 422.5,702C 436.029,704.509 449.362,707.842 462.5,712C 469.311,712.935 475.977,712.435 482.5,710.5 Z"/></g>
<g><path style="opacity:1" fill="#3e0000" d="M 307.5,703.5 C 310.448,703.223 313.281,703.556 316,704.5C 322.106,720.019 323.773,736.019 321,752.5C 319.885,757.245 317.052,760.412 312.5,762C 284.258,765.753 255.925,766.42 227.5,764C 218.669,763.376 210.335,761.043 202.5,757C 200.291,755.127 198.458,752.96 197,750.5C 196.22,748.613 196.387,746.946 197.5,745.5C 197.414,746.496 197.748,747.329 198.5,748C 200.5,748.667 202.5,749.333 204.5,750C 229.913,755.135 255.58,756.801 281.5,755C 292.694,753.546 303.361,750.379 313.5,745.5C 313.833,743.667 314.167,741.833 314.5,740C 312.998,727.659 310.665,715.492 307.5,703.5 Z"/></g>
<g><path style="opacity:1" fill="#3e0000" d="M 380.5,746.5 C 389.729,748.488 399.063,749.988 408.5,751C 436.154,752.395 463.821,752.729 491.5,752C 496.753,751.131 500.92,748.631 504,744.5C 505.9,734.29 503.4,725.457 496.5,718C 491.899,715.202 487.232,712.702 482.5,710.5C 483.392,708.286 485.058,707.286 487.5,707.5C 491.242,708.015 494.909,708.848 498.5,710C 504.561,714.606 510.061,719.772 515,725.5C 518.299,735.192 518.299,744.859 515,754.5C 510.108,760.197 503.941,763.697 496.5,765C 460.745,767.462 425.078,766.462 389.5,762C 387.112,761.697 384.945,760.863 383,759.5C 381.101,755.379 380.268,751.046 380.5,746.5 Z"/></g>
</svg>
